HIERARCHY
ROOT root
{
	OFFSET	0	13.1	24.9
	CHANNELS 6  Xposition Yposition Zposition Xrotation Yrotation Zrotation
	JOINT spine_1
	{
		OFFSET	0	9.99999	0
		CHANNELS 3  Xrotation Yrotation Zrotation
		JOINT spine_2
		{
			OFFSET	0	112	-10
			CHANNELS 3  Xrotation Yrotation Zrotation
			JOINT spine_3
			{
				OFFSET	0	206.5	19.3
				CHANNELS 3  Xrotation Yrotation Zrotation
				JOINT spine_4
				{
					OFFSET	0	110.4	14.6
					CHANNELS 3  Xrotation Yrotation Zrotation
					JOINT neck_1
					{
						OFFSET	0	71.8	-50.3
						CHANNELS 3  Xrotation Yrotation Zrotation
						JOINT neck_2
						{
							OFFSET	0	86.2	-25.8
							CHANNELS 3  Xrotation Yrotation Zrotation
							JOINT head_ee
							{
								OFFSET	0	179.8	-8.7
								CHANNELS 3  Xrotation Yrotation Zrotation
								End Site
								{
									OFFSET	1	0	0
								}
							}
						}
					}
					JOINT left_clavicle
					{
						OFFSET	-43.2	22.4	-70.8
						CHANNELS 3  Xrotation Yrotation Zrotation
						JOINT left_shoulder
						{
							OFFSET	-93.9	-5.79999	48.7
							CHANNELS 3  Xrotation Yrotation Zrotation
							JOINT left_elbow
							{
								OFFSET	-291.4	-30.8	15.2
								CHANNELS 3  Xrotation Yrotation Zrotation
								JOINT left_lowarm_twist
								{
									OFFSET	-110.7	-3.89999	13.6
									CHANNELS 3  Xrotation Yrotation Zrotation
									JOINT left_hand
									{
										OFFSET	-110.7	-3.89999	13.6
										CHANNELS 3  Xrotation Yrotation Zrotation
										JOINT left_ee
										{
											OFFSET	-80.8	-5.10001	12.1
											CHANNELS 3  Xrotation Yrotation Zrotation
											End Site
											{
												OFFSET	1	0	0
											}
										}
									}
								}
							}
						}
					}
					JOINT right_clavicle
					{
						OFFSET	43.2	22.4	-70.8
						CHANNELS 3  Xrotation Yrotation Zrotation
						JOINT right_shoulder
						{
							OFFSET	93.9	-5.79999	48.7
							CHANNELS 3  Xrotation Yrotation Zrotation
							JOINT right_elbow
							{
								OFFSET	291.4	-30.8	15.2
								CHANNELS 3  Xrotation Yrotation Zrotation
								JOINT right_lowarm_twist
								{
									OFFSET	110.7	-3.89999	13.6
									CHANNELS 3  Xrotation Yrotation Zrotation
									JOINT right_hand
									{
										OFFSET	110.7	-3.89999	13.6
										CHANNELS 3  Xrotation Yrotation Zrotation
										JOINT right_ee
										{
											OFFSET	80.8	-5.10001	12.1
											CHANNELS 3  Xrotation Yrotation Zrotation
											End Site
											{
												OFFSET	1	0	0
											}
										}
									}
								}
							}
						}
					}
				}
			}
		}
	}
	JOINT left_hip
	{
		OFFSET	-82.8	-127.5	0.300001
		CHANNELS 3  Xrotation Yrotation Zrotation
		JOINT left_knee
		{
			OFFSET	-28.2	-396.7	2.2
			CHANNELS 3  Xrotation Yrotation Zrotation
			JOINT left_ankle
			{
				OFFSET	-11.7	-411.3	35.4
				CHANNELS 3  Xrotation Yrotation Zrotation
				JOINT left_toes
				{
					OFFSET	0	-60	-88.6
					CHANNELS 3  Xrotation Yrotation Zrotation
					JOINT left_foot_ee
					{
						OFFSET	-22.5	-16.5	-42.2
						CHANNELS 3  Xrotation Yrotation Zrotation
						End Site
						{
							OFFSET	1	0	0
						}
					}
				}
			}
		}
	}
	JOINT right_hip
	{
		OFFSET	82.8	-127.5	0.300001
		CHANNELS 3  Xrotation Yrotation Zrotation
		JOINT right_knee
		{
			OFFSET	28.2	-396.7	2.2
			CHANNELS 3  Xrotation Yrotation Zrotation
			JOINT right_ankle
			{
				OFFSET	11.7	-411.3	35.4
				CHANNELS 3  Xrotation Yrotation Zrotation
				JOINT right_toes
				{
					OFFSET	0	-60	-88.6
					CHANNELS 3  Xrotation Yrotation Zrotation
					JOINT right_foot_ee
					{
						OFFSET	22.5	-16.5	-42.2
						CHANNELS 3  Xrotation Yrotation Zrotation
						End Site
						{
							OFFSET	1	0	0
						}
					}
				}
			}
		}
	}
}
MOTION
Frames: 12
Frame Time: 0.02
2541.3 615.566 -928.429 -22.2469 47.5123 15.0634 5.56606 0.330199 1.51781 5.56731 0.232959 1.53574 5.57226 0.0560171 1.55229 5.56902 0.300441 1.52397 -11.5706 7.39358 -6.81863 -11.5952 18.4215 -4.54188 -0.0 0.0 -0.0 4.8952 8.92767 9.65081 -77.2794 -74.8481 -15.8828 0.246727 -6.96838 0.0150221 5.04075 0.150131 -0.626164 -11.4807 29.1992 -69.4659 -0.0 0.0 -0.0 9.5034 27.101 -17.6357 -29.4518 32.5074 -84.0353 0.386628 10.8424 -0.0366918 -58.6273 5.11255 -5.0564 -8.66046 -30.3839 37.1865 0.0 0.0 0.0 9.12686 -12.805 13.4688 -14.0355 0.318999 2.12494 42.0689 23.5316 -5.314 5.25431 -0.0 -0.0 -0.0 0.0 -0.0 49.9994 20.8786 -7.18523 -8.1109 -0.248002 -1.21904 -8.14408 3.7215 -1.23976 6.23819 -0.0 -0.0 0.0 0.0 0.0 
2513.41 610.022 -944.408 -21.8447 47.6639 14.8586 5.67116 0.226399 1.41863 5.67227 0.135679 1.43015 5.67448 -0.0260347 1.43634 5.67166 0.201111 1.42243 -11.1471 7.14041 -7.77021 -11.1139 18.5936 -5.61468 -0.0 0.0 -0.0 4.64513 9.73679 9.21783 -76.4634 -74.4004 -13.247 0.261544 -7.38237 0.0168729 3.21239 0.102055 -0.397566 -11.5616 29.6789 -69.24 -0.0 0.0 -0.0 9.37399 26.9823 -17.3611 -29.3503 32.6483 -84.3162 0.39642 11.1103 -0.0385562 -58.8749 5.14317 -5.06478 -8.57276 -30.2708 36.7043 0.0 0.0 0.0 8.3652 -12.7865 13.6103 -15.3545 0.322035 2.32728 41.887 22.741 -5.27346 5.51607 -0.0 -0.0 -0.0 0.0 -0.0 49.6282 21.1741 -7.33024 -11.8405 -0.303626 -1.78851 -9.99556 5.69839 -1.53845 6.97863 -0.0 -0.0 0.0 0.0 0.0 
2488.72 609.035 -961.398 -21.4509 47.302 14.1856 5.70612 0.243146 1.36903 5.70715 0.155547 1.38172 5.7098 1.92766e-05 1.39045 5.70717 0.219593 1.373 -12.081 6.51769 -7.69626 -12.0666 17.2948 -5.56124 -0.0 0.0 -0.0 4.16793 10.0326 8.38874 -75.6339 -74.3181 -10.3763 0.361396 -10.1501 0.0320951 0.179389 0.00628594 -0.022048 -12.0712 32.3255 -68.7262 -0.0 0.0 -0.0 9.39631 27.9291 -17.3036 -28.149 32.2697 -83.8212 0.335707 9.44205 -0.0277242 -58.4891 5.09547 -5.05166 -8.35142 -29.1728 36.4792 0.0 0.0 0.0 7.9989 -11.5975 14.0157 -19.348 0.302826 2.93958 41.8784 21.4462 -5.23588 6.49614 -0.0 -0.0 -0.0 0.0 -0.0 50.5806 22.5826 -8.21215 -19.3814 -0.302486 -2.9447 -8.45261 4.18103 -1.28967 7.622 -0.0 -0.0 0.0 0.0 0.0 
2462.82 608.485 -972.023 -19.8202 47.6013 12.1979 5.66159 0.265371 1.41746 5.6627 0.174646 1.43147 5.6659 0.0123327 1.44203 5.66307 0.239897 1.422 -13.8886 6.44738 -6.05703 -13.9756 15.9972 -3.7289 -0.0 0.0 -0.0 3.45301 11.2434 7.19073 -74.6679 -74.6944 -7.16296 0.433541 -12.1211 0.0460307 -2.7137 -0.103485 0.331028 -12.4153 33.973 -68.3854 -0.0 0.0 -0.0 9.50934 27.8966 -17.5585 -26.1308 32.1142 -83.759 0.309894 8.72768 -0.0236484 -58.3933 5.08364 -5.04836 -8.24034 -28.3745 36.639 0.0 0.0 0.0 7.7597 -10.7426 14.2781 -22.1968 0.263076 3.37485 41.424 20.5959 -5.17283 7.08646 -0.0 -0.0 -0.0 0.0 -0.0 51.3343 23.5476 -8.89722 -24.7354 -0.209457 -3.76069 -7.48822 2.65013 -1.13424 8.0704 -0.0 -0.0 0.0 0.0 0.0 
2446.59 616.927 -981.689 -19.8088 46.6759 12.4482 5.6724 0.274709 1.20455 5.67318 0.197509 1.21959 5.67655 0.0591478 1.23406 5.67451 0.253287 1.20924 -14.0039 6.04978 -5.98585 -14.0773 15.1888 -3.77379 -0.0 0.0 -0.0 3.40074 13.009 7.16297 -74.8284 -75.8627 -5.26263 0.44944 -12.5518 0.0494274 -4.22752 -0.168 0.51348 -12.4053 33.9261 -68.3983 -0.0 0.0 -0.0 9.67243 27.8505 -17.9266 -25.8168 32.0644 -82.3059 0.325507 9.1601 -0.0260757 -58.4658 5.0926 -5.05086 -8.26071 -28.376 36.7846 0.0 0.0 0.0 7.93555 -10.5675 14.4367 -22.1957 0.263096 3.37468 41.114 20.869 -5.15181 6.90706 -0.0 -0.0 -0.0 0.0 -0.0 50.3927 23.7479 -8.28297 -26.4169 -0.164547 -4.01482 -5.77433 1.26966 -0.868077 8.07429 -0.0 -0.0 0.0 0.0 0.0 
2421.78 613.357 -990.111 -19.6332 46.6986 12.3031 5.66552 0.277296 1.0335 5.66609 0.210974 1.04905 5.66934 0.091567 1.06612 5.66784 0.258783 1.03829 -14.0671 5.7323 -5.91924 -14.1294 14.5392 -3.80494 -0.0 0.0 -0.0 3.11505 14.6267 6.74958 -74.7458 -76.3946 -2.7356 0.453397 -12.6587 0.050291 -5.28746 -0.216036 0.640199 -12.3778 33.8208 -68.3182 -0.0 0.0 -0.0 9.74299 27.6901 -18.1023 -25.5664 32.0238 -81.112 0.349397 9.81973 -0.0300146 -58.5146 5.09862 -5.05254 -8.2785 -28.3814 36.9072 0.0 0.0 0.0 8.20061 -10.2805 14.9108 -23.1839 0.244259 3.52515 40.8911 21.0893 -5.13721 6.77637 -0.0 -0.0 -0.0 0.0 -0.0 49.6109 23.7662 -8.14829 -27.5878 -0.128873 -4.19099 -4.57109 0.308767 -0.68371 8.0539 -0.0 -0.0 0.0 0.0 0.0 
2397.17 620.834 -999.877 -19.0805 46.2587 11.6724 5.58019 0.345949 1.01767 5.58072 0.280494 1.03762 5.58523 0.160384 1.06283 5.5838 0.326216 1.02416 -14.1154 5.50013 -5.7022 -14.1733 13.9615 -3.66719 -0.0 0.0 -0.0 2.44582 16.7624 5.77571 -74.2268 -77.0495 2.43356 0.430164 -12.0295 0.0453241 -6.50062 -0.273888 0.784132 -12.4142 33.9388 -68.5233 -0.0 0.0 -0.0 9.83155 27.885 -18.277 -24.5514 31.9079 -79.0019 0.386806 10.8473 -0.0367251 -58.4913 5.09575 -5.05174 -8.26088 -28.383 36.7774 0.0 0.0 0.0 11.266 -7.48278 14.9571 -26.2334 0.169809 3.98716 40.712 21.1287 -5.12183 6.38751 -0.0 -0.0 -0.0 0.0 -0.0 47.6955 23.8309 -7.82085 -28.6161 -0.0945809 -4.34506 -1.43366 -0.275256 -0.21267 8.37521 -0.0 -0.0 0.0 0.0 0.0 
2372.81 624.992 -1015.98 -19.1219 44.4548 11.383 5.59421 0.39674 1.04593 5.59476 0.329385 1.06905 5.60031 0.205672 1.09957 5.59882 0.376738 1.0533 -13.8801 4.57619 -5.32688 -13.9056 11.9877 -3.6332 -0.0 0.0 -0.0 1.65721 18.2416 4.6477 -72.8452 -77.9136 8.59132 0.375359 -10.5336 0.0346017 -7.47744 -0.322681 0.899127 -12.4052 33.9494 -68.2864 -0.0 0.0 -0.0 9.50437 26.8182 -17.6692 -23.9688 33.7187 -77.2599 0.47495 13.2397 -0.0551208 -59.1622 5.17875 -5.07434 -8.38471 -29.12 36.782 0.0 0.0 0.0 13.6629 -1.86875 14.9937 -32.5086 -0.0601685 4.92227 42.0598 20.2574 -5.22091 6.53963 -0.0 -0.0 -0.0 0.0 -0.0 45.7025 23.6216 -7.93071 -30.375 -0.0295205 -4.60715 4.19487 -0.566316 0.612688 9.32563 -0.0 -0.0 0.0 0.0 0.0 
2349.63 624.304 -1025.97 -18.2554 42.4949 9.66838 5.73228 0.367209 1.38234 5.7333 0.278512 1.4029 5.739 0.120608 1.42518 5.73633 0.344153 1.38826 -13.4343 3.85786 -5.23885 -13.4328 10.595 -3.81865 -0.0 0.0 -0.0 0.141167 19.863 2.52425 -71.3459 -78.4298 14.6599 0.337801 -9.49988 0.0280688 -8.48433 -0.375025 1.01678 -12.3336 33.7408 -67.7887 -0.0 0.0 -0.0 9.31772 26.0281 -17.339 -23.1162 35.3139 -76.537 0.596578 16.464 -0.086309 -60.3591 5.32744 -5.11222 -8.50931 -29.7881 36.854 0.0 0.0 0.0 14.8276 3.86211 12.1799 -38.7982 -0.392082 5.82931 42.0216 20.4393 -5.22213 6.84702 -0.0 -0.0 -0.0 0.0 -0.0 43.5604 23.3188 -7.06193 -31.6393 0.0222074 -4.79428 10.2766 0.0245424 1.47326 10.1134 -0.0 -0.0 0.0 0.0 0.0 
2321.26 617.608 -1055.9 -16.1231 41.7832 7.41903 5.80933 0.359485 1.68201 5.81087 0.251742 1.70147 5.81664 0.0630873 1.71883 5.81267 0.333714 1.68731 -12.6503 3.74559 -4.47623 -12.6513 9.9494 -3.19383 -0.0 0.0 -0.0 -1.10201 21.0209 0.860331 -73.7402 -79.1969 15.5049 0.278196 -7.84669 0.0190794 -9.43893 -0.426559 1.12748 -12.3141 33.7413 -67.4032 -0.0 0.0 -0.0 9.22697 24.8175 -17.2611 -21.8388 36.3379 -76.9686 0.727503 19.8183 -0.127091 -61.0828 5.41772 -5.13361 -8.56063 -30.2437 36.6522 0.0 0.0 0.0 15.9073 8.5531 10.2562 -44.9157 -0.808744 6.67229 41.3454 20.4049 -5.16097 7.01421 -0.0 -0.0 -0.0 0.0 -0.0 42.0959 22.9544 -6.72247 -32.5269 0.0609876 -4.92496 14.02 0.445781 1.98304 10.1047 -0.0 -0.0 0.0 0.0 0.0 
2301.42 631.47 -1069.37 -15.9838 41.1389 6.75216 5.98075 0.471841 2.02711 5.98297 0.341922 2.05301 5.99264 0.120501 2.07779 5.9869 0.447069 2.03272 -13.3875 4.35877 -5.00711 -13.4044 11.407 -3.44714 -0.0 0.0 -0.0 -2.17604 23.1467 -0.318668 -83.2496 -79.9696 7.42849 0.307613 -8.66441 0.0233034 -10.7958 -0.502973 1.28332 -12.3798 33.8339 -68.2995 -0.0 0.0 -0.0 9.05133 22.8731 -17.0539 -19.8779 36.343 -76.5128 0.795665 21.5117 -0.151148 -62.0754 5.54193 -5.16109 -8.29306 -30.0049 35.0687 0.0 0.0 0.0 21.9385 13.6764 5.74832 -58.6545 -2.05646 8.37553 41.892 21.1748 -5.22979 7.6915 -0.0 -0.0 -0.0 0.0 -0.0 39.7696 21.933 -7.77434 -33.0361 0.0841464 -4.99965 22.5119 -0.772884 3.05452 8.98444 -0.0 -0.0 0.0 0.0 0.0 
2289.85 625.632 -1075.15 -16.4433 40.5052 7.46621 6.20444 0.581624 1.99101 6.20653 0.453779 2.02396 6.21994 0.243072 2.0599 6.21447 0.56528 1.99571 -13.3974 4.25321 -5.13911 -13.4088 11.2876 -3.60497 -0.0 0.0 -0.0 -2.16866 23.4669 -0.252975 -78.1705 -79.8457 12.7928 0.287841 -8.11518 0.0204187 -9.34466 -0.421388 1.11659 -12.3717 33.8348 -68.1305 -0.0 0.0 -0.0 9.29965 24.2553 -17.4779 -20.0532 37.3307 -74.6395 0.902666 24.0917 -0.192627 -63.5778 5.73076 -5.19856 -8.13062 -28.2755 35.9668 0.0 0.0 0.0 27.892 16.158 2.87064 -65.3377 -2.80308 9.08612 39.9152 25.795 -5.18625 7.3687 -0.0 -0.0 -0.0 0.0 -0.0 38.7834 16.4327 -5.05109 -31.7005 0.0248164 -4.80331 18.8377 -4.68573 2.58812 5.36821 -0.0 -0.0 0.0 0.0 0.0 
